{"title":"Ass.Masterpiece.Sheena.Shaw.XXX.wmv","uid":10615380,"size":398278551,"categoryP":"porn","categoryS":"movies","magnet":"?xt=urn:btih:cfb7666db73023087c79855e586c79cd95ba7062&amp;dn=Ass.Masterpiece.Sheena.Shaw.XXX.wmv&amp;tr=udp%3A%2F%2Ftracker.openbittorrent.com%3A80&amp;tr=udp%3A%2F%2Fopen.demonii.com%3A1337&amp;tr=udp%3A%2F%2Ftracker.coppersurfer.tk%3A6969&amp;tr=udp%3A%2F%2Fexodus.desync.com%3A6969","seeders":2,"leechers":0,"uploader":"XXXmegathor","files":1,"time":1406106999,"description":"Ass.Masterpiece.Sheena.Shaw.XXX\n\nSCREENIES &lt;a href=&quot;\nhttp://www.xxxtrapics.com/image/Mp&quot; rel=&quot;nofollow&quot; target=&quot;_NEW&quot;&gt;\nhttp://www.xxxtrapics.com/image/Mp&lt;/a&gt;\n\n\nDuration : 25mn 14s\nBit rate mode : Constant\nBit rate : 2 000 Kbps\nWidth : 850 pixels\nHeight : 480 pixels\nDisplay aspect ratio : 16:9\nFrame rate : 29.970 fps\nBit depth : 8 bits\nScan type : Progressive\nCompression mode : Lossy\nBits/(Pixel*Frame) : 0.164\nStream size : 361 MiB (95%)\nLanguage : English (US)\n\nAudio\nID : 1\nFormat : WMA\nFormat version : Version 2\nCodec ID : 161\nCodec ID/Info : Windows Media Audio\nDescription of the codec : Windows Media Audio 9.2 - 96 kbps, 48 kHz, stereo (A/V) 1-pass CBR\nDuration : 25mn 14s\nBit rate mode : Constant\nBit rate : 96.0 Kbps\nChannel(s) : 2 channels\nSampling rate : 48.0 KHz\nBit depth : 16 bits\nStream size : 17.3 MiB (5%)\nLanguage : English (US)\n","torrent":{"xt":"urn:btih:cfb7666db73023087c79855e586c79cd95ba7062","amp;dn":"Ass.Masterpiece.Sheena.Shaw.XXX.wmv","amp;tr":["udp%3A%2F%2Ftracker.openbittorrent.com%3A80","udp%3A%2F%2Fopen.demonii.com%3A1337","udp%3A%2F%2Ftracker.coppersurfer.tk%3A6969","udp%3A%2F%2Fexodus.desync.com%3A6969"],"infoHash":"cfb7666db73023087c79855e586c79cd95ba7062","infoHashBuffer":{"type":"Buffer","data":[207,183,102,109,183,48,35,8,124,121,133,94,88,108,121,205,149,186,112,98]},"announce":[],"urlList":[]}}